<svg xmlns:xlink="http://www.w3.org/1999/xlink" width="75ex" height="25.176ex" style="font-size: 15px; vertical-align: -12.505ex; max-width: 450;" viewBox="0 -5455.7 32291.5 10839.6" role="img" focusable="false" xmlns="http://www.w3.org/2000/svg">
<defs>
<path stroke-width="1" id="E1-MJMAIN-33" d="M127 463Q100 463 85 480T69 524Q69 579 117 622T233 665Q268 665 277 664Q351 652 390 611T430 522Q430 470 396 421T302 350L299 348Q299 347 308 345T337 336T375 315Q457 262 457 175Q457 96 395 37T238 -22Q158 -22 100 21T42 130Q42 158 60 175T105 193Q133 193 151 175T169 130Q169 119 166 110T159 94T148 82T136 74T126 70T118 67L114 66Q165 21 238 21Q293 21 321 74Q338 107 338 175V195Q338 290 274 322Q259 328 213 329L171 330L168 332Q166 335 166 348Q166 366 174 366Q202 366 232 371Q266 376 294 413T322 525V533Q322 590 287 612Q265 626 240 626Q208 626 181 615T143 592T132 580H135Q138 579 143 578T153 573T165 566T175 555T183 540T186 520Q186 498 172 481T127 463Z"></path>
<path stroke-width="1" id="E1-MJMAIN-37" d="M55 458Q56 460 72 567L88 674Q88 676 108 676H128V672Q128 662 143 655T195 646T364 644H485V605L417 512Q408 500 387 472T360 435T339 403T319 367T305 330T292 284T284 230T278 162T275 80Q275 66 275 52T274 28V19Q270 2 255 -10T221 -22Q210 -22 200 -19T179 0T168 40Q168 198 265 368Q285 400 349 489L395 552H302Q128 552 119 546Q113 543 108 522T98 479L95 458V455H55V458Z"></path>
<path stroke-width="1" id="E1-MJMAIN-34" d="M462 0Q444 3 333 3Q217 3 199 0H190V46H221Q241 46 248 46T265 48T279 53T286 61Q287 63 287 115V165H28V211L179 442Q332 674 334 675Q336 677 355 677H373L379 671V211H471V165H379V114Q379 73 379 66T385 54Q393 47 442 46H471V0H462ZM293 211V545L74 212L183 211H293Z"></path>
<path stroke-width="1" id="E1-MJMAIN-36" d="M42 313Q42 476 123 571T303 666Q372 666 402 630T432 550Q432 525 418 510T379 495Q356 495 341 509T326 548Q326 592 373 601Q351 623 311 626Q240 626 194 566Q147 500 147 364L148 360Q153 366 156 373Q197 433 263 433H267Q313 433 348 414Q372 400 396 374T435 317Q456 268 456 210V192Q456 169 451 149Q440 90 387 34T253 -22Q225 -22 199 -14T143 16T92 75T56 172T42 313ZM257 397Q227 397 205 380T171 335T154 278T148 216Q148 133 160 97T198 39Q222 21 251 21Q302 21 329 59Q342 77 347 104T352 209Q352 289 347 316T329 361Q302 397 257 397Z"></path>
<path stroke-width="1" id="E1-MJMAIN-35" d="M164 157Q164 133 148 117T109 101H102Q148 22 224 22Q294 22 326 82Q345 115 345 210Q345 313 318 349Q292 382 260 382H254Q176 382 136 314Q132 307 129 306T114 304Q97 304 95 310Q93 314 93 485V614Q93 664 98 664Q100 666 102 666Q103 666 123 658T178 642T253 634Q324 634 389 662Q397 666 402 666Q410 666 410 648V635Q328 538 205 538Q174 538 149 544L139 546V374Q158 388 169 396T205 412T256 420Q337 420 393 355T449 201Q449 109 385 44T229 -22Q148 -22 99 32T50 154Q50 178 61 192T84 210T107 214Q132 214 148 197T164 157Z"></path>
</defs>
<g stroke="currentColor" fill="currentColor" stroke-width="0" transform="matrix(1 0 0 -1 0 0)">
<g transform="translate(6639,0)">
<g transform="translate(167,0)">
<g transform="translate(389,0)">
<g transform="translate(851,2572)">
<g fill="SkyBlue" stroke="SkyBlue">
<g fill="SkyBlue" stroke="SkyBlue">
<g fill="SkyBlue" stroke="SkyBlue">
<g fill="SkyBlue" stroke="SkyBlue">
<g fill="SkyBlue" stroke="SkyBlue">
<text font-family="monospace" stroke="none" transform="scale(71.759) matrix(1 0 0 -1 0 0)">周</text>
</g>
</g>
</g>
<g fill="SkyBlue" stroke="SkyBlue" transform="translate(1148,0)">
<g fill="SkyBlue" stroke="SkyBlue">
<g fill="SkyBlue" stroke="SkyBlue">
<text font-family="monospace" stroke="none" transform="scale(71.759) matrix(1 0 0 -1 0 0)">一</text>
</g>
</g>
</g>
</g>
</g>
</g>
<g transform="translate(851,880)">
<g fill="blue" stroke="blue">
<g fill="blue" stroke="blue">
<g fill="blue" stroke="blue">
<g fill="blue" stroke="blue">
<g fill="blue" stroke="blue">
<text font-family="monospace" stroke="none" transform="scale(71.759) matrix(1 0 0 -1 0 0)">周</text>
</g>
</g>
</g>
<g fill="blue" stroke="blue" transform="translate(1148,0)">
<g fill="blue" stroke="blue">
<g fill="blue" stroke="blue">
<text font-family="monospace" stroke="none" transform="scale(71.759) matrix(1 0 0 -1 0 0)">二</text>
</g>
</g>
</g>
</g>
</g>
</g>
<g transform="translate(851,-812)">
<g fill="orange" stroke="orange">
<g fill="orange" stroke="orange">
<g fill="orange" stroke="orange">
<g fill="orange" stroke="orange">
<g fill="orange" stroke="orange">
<text font-family="monospace" stroke="none" transform="scale(71.759) matrix(1 0 0 -1 0 0)">周</text>
</g>
</g>
</g>
<g fill="orange" stroke="orange" transform="translate(1148,0)">
<g fill="orange" stroke="orange">
<g fill="orange" stroke="orange">
<text font-family="monospace" stroke="none" transform="scale(71.759) matrix(1 0 0 -1 0 0)">三</text>
</g>
</g>
</g>
</g>
</g>
</g>
<g transform="translate(851,-2503)">
<g fill="Goldenrod" stroke="Goldenrod">
<g fill="Goldenrod" stroke="Goldenrod">
<g fill="Goldenrod" stroke="Goldenrod">
<g fill="Goldenrod" stroke="Goldenrod">
<g fill="Goldenrod" stroke="Goldenrod">
<text font-family="monospace" stroke="none" transform="scale(71.759) matrix(1 0 0 -1 0 0)">周</text>
</g>
</g>
</g>
<g fill="Goldenrod" stroke="Goldenrod" transform="translate(1148,0)">
<g fill="Goldenrod" stroke="Goldenrod">
<g fill="Goldenrod" stroke="Goldenrod">
<text font-family="monospace" stroke="none" transform="scale(71.759) matrix(1 0 0 -1 0 0)">四</text>
</g>
</g>
</g>
</g>
</g>
</g>
<g transform="translate(851,-4195)">
<g fill="green" stroke="green">
<g fill="green" stroke="green">
<g fill="green" stroke="green">
<g fill="green" stroke="green">
<g fill="green" stroke="green">
<text font-family="monospace" stroke="none" transform="scale(71.759) matrix(1 0 0 -1 0 0)">周</text>
</g>
</g>
</g>
<g fill="green" stroke="green" transform="translate(1148,0)">
<g fill="green" stroke="green">
<g fill="green" stroke="green">
<text font-family="monospace" stroke="none" transform="scale(71.759) matrix(1 0 0 -1 0 0)">五</text>
</g>
</g>
</g>
</g>
</g>
</g>
</g>
<line stroke-linecap="square" stroke-width="20.9" y1="10" x2="10" x1="10" y2="10170" transform="translate(4889,-4841)"></line>
<g transform="translate(5389,0)">
<g transform="translate(0,4263)">
<g transform="translate(2000,0)">
<text font-family="monospace" stroke="none" transform="scale(71.759) matrix(1 0 0 -1 0 0)">销</text>
</g>
<g transform="translate(3148,0)">
<text font-family="monospace" stroke="none" transform="scale(71.759) matrix(1 0 0 -1 0 0)">售</text>
</g>
</g>
 <use xlink:href="#E1-MJMAIN-33" x="2897" y="2572"></use>
 <use xlink:href="#E1-MJMAIN-37" x="2897" y="880"></use>
 <use xlink:href="#E1-MJMAIN-34" x="2897" y="-812"></use>
 <use xlink:href="#E1-MJMAIN-36" x="2897" y="-2503"></use>
 <use xlink:href="#E1-MJMAIN-35" x="2897" y="-4195"></use>
</g>
<line stroke-linecap="square" stroke-width="20.9" y1="10" x2="10" x1="10" y2="10170" transform="translate(12185,-4841)"></line>
<g transform="translate(12685,0)">
<g transform="translate(0,4263)">
<g transform="translate(1000,0)">
<text font-family="monospace" stroke="none" transform="scale(71.759) matrix(1 0 0 -1 0 0)">备</text>
</g>
<g transform="translate(2148,0)">
<text font-family="monospace" stroke="none" transform="scale(71.759) matrix(1 0 0 -1 0 0)">货</text>
</g>
<g transform="translate(3296,0)">
<text font-family="monospace" stroke="none" transform="scale(71.759) matrix(1 0 0 -1 0 0)">五</text>
</g>
<g transform="translate(4444,0)">
<text font-family="monospace" stroke="none" transform="scale(71.759) matrix(1 0 0 -1 0 0)">个</text>
</g>
</g>
<g transform="translate(1648,880)">
<g fill="red" stroke="red">
<g fill="red" stroke="red">
<g fill="red" stroke="red">
<g fill="red" stroke="red">
<g fill="red" stroke="red">
<text font-family="monospace" stroke="none" transform="scale(71.759) matrix(1 0 0 -1 0 0)">不</text>
</g>
</g>
</g>
<g fill="red" stroke="red" transform="translate(1148,0)">
<g fill="red" stroke="red">
<g fill="red" stroke="red">
<text font-family="monospace" stroke="none" transform="scale(71.759) matrix(1 0 0 -1 0 0)">够</text>
</g>
</g>
</g>
</g>
</g>
</g>
<g transform="translate(1648,-2503)">
<g fill="red" stroke="red">
<g fill="red" stroke="red">
<g fill="red" stroke="red">
<g fill="red" stroke="red">
<g fill="red" stroke="red">
<text font-family="monospace" stroke="none" transform="scale(71.759) matrix(1 0 0 -1 0 0)">不</text>
</g>
</g>
</g>
<g fill="red" stroke="red" transform="translate(1148,0)">
<g fill="red" stroke="red">
<g fill="red" stroke="red">
<text font-family="monospace" stroke="none" transform="scale(71.759) matrix(1 0 0 -1 0 0)">够</text>
</g>
</g>
</g>
</g>
</g>
</g>
</g>
<line stroke-linecap="square" stroke-width="20.9" y2="10" y1="10" x1="10" x2="18667" transform="translate(0,3622)"></line>
<line stroke-linecap="square" stroke-width="20.9" y2="10" y1="10" x1="10" x2="18667" transform="translate(0,1931)"></line>
<line stroke-linecap="square" stroke-width="20.9" y2="10" y1="10" x1="10" x2="18667" transform="translate(0,239)"></line>
<line stroke-linecap="square" stroke-width="20.9" y2="10" y1="10" x1="10" x2="18667" transform="translate(0,-1453)"></line>
<line stroke-linecap="square" stroke-width="20.9" y2="10" y1="10" x1="10" x2="18667" transform="translate(0,-3144)"></line>
</g>
</g>
</g>
</svg>